<mxfile host="Electron" modified="2024-10-03T06:48:04.407Z" agent="Mozilla/5.0 (X11; Linux x86_64) AppleWebKit/537.36 (KHTML, like Gecko) draw.io/24.2.5 Chrome/120.0.6099.109 Electron/28.1.0 Safari/537.36" etag="2TwmKhGqkNpPa5dAUKjm" version="24.2.5" type="device">
  <diagram id="C5RBs43oDa-KdzZeNtuy" name="Page-1">
    <mxGraphModel dx="1687" dy="1020" grid="1" gridSize="10" guides="1" tooltips="1" connect="1" arrows="1" fold="1" page="1" pageScale="1" pageWidth="827" pageHeight="1169" math="0" shadow="0">
      <root>
        <mxCell id="WIyWlLk6GJQsqaUBKTNV-0" />
        <mxCell id="WIyWlLk6GJQsqaUBKTNV-1" parent="WIyWlLk6GJQsqaUBKTNV-0" />
        <mxCell id="WIyWlLk6GJQsqaUBKTNV-3" value="talos_solve(board, sigils)" style="rounded=1;whiteSpace=wrap;html=1;fontSize=12;glass=0;strokeWidth=1;shadow=0;" parent="WIyWlLk6GJQsqaUBKTNV-1" vertex="1">
          <mxGeometry x="80" y="50" width="190" height="40" as="geometry" />
        </mxCell>
        <mxCell id="otkN7rUzamcWUnGczqrl-4" value="Yes" style="edgeStyle=orthogonalEdgeStyle;rounded=0;html=1;jettySize=auto;orthogonalLoop=1;fontSize=11;endArrow=block;endFill=1;endSize=8;strokeWidth=1;shadow=0;labelBackgroundColor=none;" parent="WIyWlLk6GJQsqaUBKTNV-1" source="otkN7rUzamcWUnGczqrl-5" target="otkN7rUzamcWUnGczqrl-6" edge="1">
          <mxGeometry y="10" relative="1" as="geometry">
            <mxPoint as="offset" />
          </mxGeometry>
        </mxCell>
        <mxCell id="otkN7rUzamcWUnGczqrl-32" style="edgeStyle=orthogonalEdgeStyle;rounded=0;orthogonalLoop=1;jettySize=auto;html=1;entryX=0.5;entryY=0;entryDx=0;entryDy=0;" parent="WIyWlLk6GJQsqaUBKTNV-1" source="otkN7rUzamcWUnGczqrl-5" target="otkN7rUzamcWUnGczqrl-16" edge="1">
          <mxGeometry relative="1" as="geometry" />
        </mxCell>
        <mxCell id="otkN7rUzamcWUnGczqrl-5" value="is index &amp;gt;= sigils.size() ?" style="rhombus;whiteSpace=wrap;html=1;shadow=0;fontFamily=Helvetica;fontSize=12;align=center;strokeWidth=1;spacing=6;spacingTop=-4;" parent="WIyWlLk6GJQsqaUBKTNV-1" vertex="1">
          <mxGeometry x="465.75" y="130" width="115" height="80" as="geometry" />
        </mxCell>
        <mxCell id="otkN7rUzamcWUnGczqrl-6" value="Board already solved, return true" style="rounded=1;whiteSpace=wrap;html=1;fontSize=12;glass=0;strokeWidth=1;shadow=0;" parent="WIyWlLk6GJQsqaUBKTNV-1" vertex="1">
          <mxGeometry x="622" y="150" width="120" height="40" as="geometry" />
        </mxCell>
        <mxCell id="otkN7rUzamcWUnGczqrl-27" style="edgeStyle=orthogonalEdgeStyle;rounded=0;orthogonalLoop=1;jettySize=auto;html=1;entryX=0.5;entryY=0;entryDx=0;entryDy=0;" parent="WIyWlLk6GJQsqaUBKTNV-1" source="otkN7rUzamcWUnGczqrl-9" target="otkN7rUzamcWUnGczqrl-10" edge="1">
          <mxGeometry relative="1" as="geometry" />
        </mxCell>
        <mxCell id="otkN7rUzamcWUnGczqrl-28" value="Yes" style="edgeLabel;html=1;align=center;verticalAlign=middle;resizable=0;points=[];" parent="otkN7rUzamcWUnGczqrl-27" vertex="1" connectable="0">
          <mxGeometry x="-0.088" relative="1" as="geometry">
            <mxPoint as="offset" />
          </mxGeometry>
        </mxCell>
        <mxCell id="otkN7rUzamcWUnGczqrl-29" style="edgeStyle=orthogonalEdgeStyle;rounded=0;orthogonalLoop=1;jettySize=auto;html=1;entryX=0;entryY=0.5;entryDx=0;entryDy=0;" parent="WIyWlLk6GJQsqaUBKTNV-1" source="otkN7rUzamcWUnGczqrl-9" target="otkN7rUzamcWUnGczqrl-11" edge="1">
          <mxGeometry relative="1" as="geometry" />
        </mxCell>
        <mxCell id="otkN7rUzamcWUnGczqrl-30" value="No" style="edgeLabel;html=1;align=center;verticalAlign=middle;resizable=0;points=[];" parent="otkN7rUzamcWUnGczqrl-29" vertex="1" connectable="0">
          <mxGeometry x="-0.6511" relative="1" as="geometry">
            <mxPoint as="offset" />
          </mxGeometry>
        </mxCell>
        <mxCell id="otkN7rUzamcWUnGczqrl-9" value="was a (rotation, coordinate) pair successful?" style="rhombus;whiteSpace=wrap;html=1;shadow=0;fontFamily=Helvetica;fontSize=12;align=center;strokeWidth=1;spacing=6;spacingTop=-4;" parent="WIyWlLk6GJQsqaUBKTNV-1" vertex="1">
          <mxGeometry x="453.25" y="370" width="140" height="100" as="geometry" />
        </mxCell>
        <mxCell id="otkN7rUzamcWUnGczqrl-21" style="edgeStyle=orthogonalEdgeStyle;rounded=0;orthogonalLoop=1;jettySize=auto;html=1;exitX=0.5;exitY=1;exitDx=0;exitDy=0;entryX=0.5;entryY=0;entryDx=0;entryDy=0;" parent="WIyWlLk6GJQsqaUBKTNV-1" source="otkN7rUzamcWUnGczqrl-10" target="otkN7rUzamcWUnGczqrl-18" edge="1">
          <mxGeometry relative="1" as="geometry" />
        </mxCell>
        <mxCell id="otkN7rUzamcWUnGczqrl-10" value="status = talos_solve(board, sigils, ++index)" style="rounded=1;whiteSpace=wrap;html=1;fontSize=12;glass=0;strokeWidth=1;shadow=0;" parent="WIyWlLk6GJQsqaUBKTNV-1" vertex="1">
          <mxGeometry x="420.75" y="520" width="205" height="40" as="geometry" />
        </mxCell>
        <mxCell id="otkN7rUzamcWUnGczqrl-11" value="return false" style="rounded=1;whiteSpace=wrap;html=1;fontSize=12;glass=0;strokeWidth=1;shadow=0;" parent="WIyWlLk6GJQsqaUBKTNV-1" vertex="1">
          <mxGeometry x="632" y="400" width="120" height="40" as="geometry" />
        </mxCell>
        <mxCell id="otkN7rUzamcWUnGczqrl-12" value="" style="rounded=0;html=1;jettySize=auto;orthogonalLoop=1;fontSize=11;endArrow=block;endFill=1;endSize=8;strokeWidth=1;shadow=0;labelBackgroundColor=none;edgeStyle=orthogonalEdgeStyle;exitX=0.5;exitY=1;exitDx=0;exitDy=0;entryX=0.5;entryY=0;entryDx=0;entryDy=0;" parent="WIyWlLk6GJQsqaUBKTNV-1" source="otkN7rUzamcWUnGczqrl-13" target="otkN7rUzamcWUnGczqrl-5" edge="1">
          <mxGeometry relative="1" as="geometry">
            <mxPoint x="522" y="130" as="targetPoint" />
            <mxPoint x="401.9999999999999" y="95.02439024390264" as="sourcePoint" />
          </mxGeometry>
        </mxCell>
        <mxCell id="otkN7rUzamcWUnGczqrl-13" value="talos_solve(board, sigils, index)" style="rounded=1;whiteSpace=wrap;html=1;fontSize=12;glass=0;strokeWidth=1;shadow=0;" parent="WIyWlLk6GJQsqaUBKTNV-1" vertex="1">
          <mxGeometry x="428.25" y="50" width="190" height="40" as="geometry" />
        </mxCell>
        <mxCell id="otkN7rUzamcWUnGczqrl-14" value="return talos_solve(board, sigils, 0)" style="shape=process;whiteSpace=wrap;html=1;backgroundOutline=1;" parent="WIyWlLk6GJQsqaUBKTNV-1" vertex="1">
          <mxGeometry x="80" y="260" width="200" height="60" as="geometry" />
        </mxCell>
        <mxCell id="otkN7rUzamcWUnGczqrl-17" style="edgeStyle=orthogonalEdgeStyle;rounded=0;orthogonalLoop=1;jettySize=auto;html=1;exitX=0.5;exitY=1;exitDx=0;exitDy=0;entryX=0.5;entryY=0;entryDx=0;entryDy=0;" parent="WIyWlLk6GJQsqaUBKTNV-1" source="otkN7rUzamcWUnGczqrl-16" target="otkN7rUzamcWUnGczqrl-9" edge="1">
          <mxGeometry relative="1" as="geometry" />
        </mxCell>
        <mxCell id="otkN7rUzamcWUnGczqrl-16" value="try to place sigils[index] for all unchecked rotations and coordinates on board, stop at first successful placing" style="rounded=1;whiteSpace=wrap;html=1;fontSize=12;glass=0;strokeWidth=1;shadow=0;" parent="WIyWlLk6GJQsqaUBKTNV-1" vertex="1">
          <mxGeometry x="414.5" y="260" width="217.5" height="60" as="geometry" />
        </mxCell>
        <mxCell id="otkN7rUzamcWUnGczqrl-22" style="edgeStyle=orthogonalEdgeStyle;rounded=0;orthogonalLoop=1;jettySize=auto;html=1;entryX=0;entryY=0.5;entryDx=0;entryDy=0;exitX=0;exitY=0.5;exitDx=0;exitDy=0;" parent="WIyWlLk6GJQsqaUBKTNV-1" source="otkN7rUzamcWUnGczqrl-18" target="otkN7rUzamcWUnGczqrl-16" edge="1">
          <mxGeometry relative="1" as="geometry">
            <mxPoint x="357" y="290" as="targetPoint" />
            <mxPoint x="427" y="640" as="sourcePoint" />
            <Array as="points">
              <mxPoint x="397" y="640" />
              <mxPoint x="397" y="290" />
            </Array>
          </mxGeometry>
        </mxCell>
        <mxCell id="otkN7rUzamcWUnGczqrl-23" value="No" style="edgeLabel;html=1;align=center;verticalAlign=middle;resizable=0;points=[];" parent="otkN7rUzamcWUnGczqrl-22" vertex="1" connectable="0">
          <mxGeometry x="-0.9577" y="1" relative="1" as="geometry">
            <mxPoint x="-3" y="-1" as="offset" />
          </mxGeometry>
        </mxCell>
        <mxCell id="otkN7rUzamcWUnGczqrl-24" style="edgeStyle=orthogonalEdgeStyle;rounded=0;orthogonalLoop=1;jettySize=auto;html=1;entryX=0;entryY=0.5;entryDx=0;entryDy=0;" parent="WIyWlLk6GJQsqaUBKTNV-1" source="otkN7rUzamcWUnGczqrl-18" target="otkN7rUzamcWUnGczqrl-20" edge="1">
          <mxGeometry relative="1" as="geometry" />
        </mxCell>
        <mxCell id="otkN7rUzamcWUnGczqrl-25" value="Yes" style="edgeLabel;html=1;align=center;verticalAlign=middle;resizable=0;points=[];" parent="otkN7rUzamcWUnGczqrl-24" vertex="1" connectable="0">
          <mxGeometry x="-0.7558" relative="1" as="geometry">
            <mxPoint x="3" as="offset" />
          </mxGeometry>
        </mxCell>
        <mxCell id="otkN7rUzamcWUnGczqrl-18" value="Is status == true?" style="rhombus;whiteSpace=wrap;html=1;" parent="WIyWlLk6GJQsqaUBKTNV-1" vertex="1">
          <mxGeometry x="479.5" y="595" width="87.5" height="90" as="geometry" />
        </mxCell>
        <mxCell id="otkN7rUzamcWUnGczqrl-20" value="return true" style="rounded=1;whiteSpace=wrap;html=1;fontSize=12;glass=0;strokeWidth=1;shadow=0;" parent="WIyWlLk6GJQsqaUBKTNV-1" vertex="1">
          <mxGeometry x="647" y="620" width="120" height="40" as="geometry" />
        </mxCell>
        <mxCell id="1sCY0BPXxyFiIOV8VWp2-6" value="No" style="edgeStyle=orthogonalEdgeStyle;rounded=0;html=1;jettySize=auto;orthogonalLoop=1;fontSize=11;endArrow=block;endFill=1;endSize=8;strokeWidth=1;shadow=0;labelBackgroundColor=none;" parent="WIyWlLk6GJQsqaUBKTNV-1" source="1sCY0BPXxyFiIOV8VWp2-8" target="1sCY0BPXxyFiIOV8VWp2-9" edge="1">
          <mxGeometry y="10" relative="1" as="geometry">
            <mxPoint as="offset" />
          </mxGeometry>
        </mxCell>
        <mxCell id="1sCY0BPXxyFiIOV8VWp2-7" style="edgeStyle=orthogonalEdgeStyle;rounded=0;orthogonalLoop=1;jettySize=auto;html=1;entryX=0.5;entryY=0;entryDx=0;entryDy=0;" parent="WIyWlLk6GJQsqaUBKTNV-1" source="1sCY0BPXxyFiIOV8VWp2-8" edge="1">
          <mxGeometry relative="1" as="geometry">
            <mxPoint x="174.75" y="260" as="targetPoint" />
          </mxGeometry>
        </mxCell>
        <mxCell id="1sCY0BPXxyFiIOV8VWp2-11" value="Yes" style="edgeLabel;html=1;align=center;verticalAlign=middle;resizable=0;points=[];" parent="1sCY0BPXxyFiIOV8VWp2-7" vertex="1" connectable="0">
          <mxGeometry x="-0.2449" y="-1" relative="1" as="geometry">
            <mxPoint as="offset" />
          </mxGeometry>
        </mxCell>
        <mxCell id="1sCY0BPXxyFiIOV8VWp2-8" value="is board big enough?" style="rhombus;whiteSpace=wrap;html=1;shadow=0;fontFamily=Helvetica;fontSize=12;align=center;strokeWidth=1;spacing=6;spacingTop=-4;" parent="WIyWlLk6GJQsqaUBKTNV-1" vertex="1">
          <mxGeometry x="117.5" y="130" width="115" height="80" as="geometry" />
        </mxCell>
        <mxCell id="1sCY0BPXxyFiIOV8VWp2-9" value="return false" style="rounded=1;whiteSpace=wrap;html=1;fontSize=12;glass=0;strokeWidth=1;shadow=0;" parent="WIyWlLk6GJQsqaUBKTNV-1" vertex="1">
          <mxGeometry x="261.25" y="155" width="88.75" height="30" as="geometry" />
        </mxCell>
        <mxCell id="1sCY0BPXxyFiIOV8VWp2-10" value="" style="rounded=0;html=1;jettySize=auto;orthogonalLoop=1;fontSize=11;endArrow=block;endFill=1;endSize=8;strokeWidth=1;shadow=0;labelBackgroundColor=none;edgeStyle=orthogonalEdgeStyle;exitX=0.5;exitY=1;exitDx=0;exitDy=0;entryX=0.5;entryY=0;entryDx=0;entryDy=0;" parent="WIyWlLk6GJQsqaUBKTNV-1" target="1sCY0BPXxyFiIOV8VWp2-8" edge="1">
          <mxGeometry relative="1" as="geometry">
            <mxPoint x="173.75" y="130" as="targetPoint" />
            <mxPoint x="174.75" y="90" as="sourcePoint" />
          </mxGeometry>
        </mxCell>
      </root>
    </mxGraphModel>
  </diagram>
</mxfile>
